<?xml version="1.0" encoding="UTF-8" standalone="no"?>
<svg
   version="1.1"
   id="Layer_1"
   x="0px"
   y="0px"
   width="100%"
   viewBox="0 0 1416 1416"
   enable-background="new 0 0 1416 1416"
   xml:space="preserve"
   sodipodi:docname="loop1.svg"
   inkscape:version="1.3.2 (091e20e, 2023-11-25, custom)"
   xmlns:inkscape="http://www.inkscape.org/namespaces/inkscape"
   xmlns:sodipodi="http://sodipodi.sourceforge.net/DTD/sodipodi-0.dtd"
   xmlns="http://www.w3.org/2000/svg"
   xmlns:svg="http://www.w3.org/2000/svg"><defs
   id="defs6" /><sodipodi:namedview
   id="namedview6"
   pagecolor="#ffffff"
   bordercolor="#999999"
   borderopacity="1"
   inkscape:showpageshadow="2"
   inkscape:pageopacity="0"
   inkscape:pagecheckerboard="0"
   inkscape:deskcolor="#d1d1d1"
   inkscape:zoom="0.59110169"
   inkscape:cx="648.78854"
   inkscape:cy="643.71327"
   inkscape:window-width="1920"
   inkscape:window-height="1051"
   inkscape:window-x="-9"
   inkscape:window-y="-9"
   inkscape:window-maximized="1"
   inkscape:current-layer="Layer_1" />

<path
   fill="#fcb000"
   opacity="1"
   stroke="none"
   d="m 1213.1951,305.33783 c 16.2769,6.90585 32.962,11.89076 46.7735,23.10621 -4.0109,-0.9642 -8.0689,-1.76646 -12.0245,-2.92032 -18.2162,-5.31395 -36.6872,-3.91787 -55.1811,-2.28972 -462.47564,77.78903 -843.17086,533.74093 -1048.10776,634.9138 -6.49215,3.20474 -14.39783,4.92881 -21.62948,4.82249 -5.93725,-0.0868 -11.90756,-3.65111 -17.71175,-6.04152 C 84.34723,948.29372 63.424665,939.55009 42.537579,930.724 39.188959,929.30902 36.107034,927.26308 31.593338,924.79261 59.310929,904.99244 88.39419,887.22743 117.13986,868.9824 284.75837,762.45517 611.42551,465.53874 878.4222,349.83726 c 75.05904,-31.48186 192.7931,-91.63041 278.0753,-67.54157 19.3541,6.49553 38.0011,14.88904 56.6976,23.04214 z"
   id="path2"
   sodipodi:nodetypes="ccsssssscsssc"
   style="stroke-width:1.20996" />
<path
   fill="#fcb000"
   opacity="1"
   stroke="none"
   d="m 1333.2329,983.47111 c -26.062,24.87329 -62.0604,29.56439 -96.6529,28.00729 -44.5505,-0.7468 -72.4442,-9.9492 -109.8053,-28.81619 -26.6771,-12.23209 -52.9491,-25.34823 -79.3725,-38.13322 -1.8936,-0.9161 -3.7087,-1.99397 -5.5603,-2.99676 27.7087,2.45729 89.0473,32.4667 154.384,20.33587 193.6971,-39.09979 0.8106,-627.80288 -2.7321,-634.15711 13.3117,-3.8964 50.5945,-4.93077 79.6397,11.38161 19.1569,10.75937 35.3178,71.79967 41.7023,97.11289 57.8446,229.34163 95.1398,473.42404 18.3971,547.26562 z"
   id="path3"
   sodipodi:nodetypes="sssscscsss"
   style="stroke-width:1.20996" />
<path
   fill="#fcb000"
   opacity="1"
   stroke="none"
   d="m 310.51309,530.37061 c 10.83836,-1.35481 21.89299,-1.01248 32.85338,-1.31412 1.31268,-0.036 2.90292,0.35465 3.93194,1.12518 40.9687,30.67942 57.29486,43.19074 58.65147,44.71223 -9.11913,2.41621 -18.17577,4.10418 -26.7067,7.22804 -87.01342,38.24003 -146.43387,148.75752 -192.21106,226.93229 -3.59399,6.09985 -8.56292,11.33963 -12.79072,17.00718 -28.99275,20.01523 -58.2726,39.47231 -88.03415,58.52971 -15.21541,9.73747 -30.545978,19.29521 -45.747802,29.05361 -3.628284,2.32916 -6.949657,5.13632 -10.709754,7.94589 C 25.532349,916.126 25.632845,910.22899 26.684467,904.69965 29.107954,891.9572 32.637392,879.57458 38.791375,867.91583 106.61073,764.96177 170.90506,553.63789 310.51309,530.37061 Z"
   id="path4"
   sodipodi:nodetypes="ssscssssscsss"
   style="stroke-width:1.20996" />
<path
   fill="#fcb000"
   opacity="1"
   stroke="none"
   d="m 1119.5933,983.89493 c 2.5739,1.22771 5.3273,2.80151 8.4739,4.6893 C 1123.0734,988.3106 942.41755,924.31139 789.87745,836.9057 702.37253,786.76519 616.9345,731.99739 536.0871,670.85748 c 9.17204,-7.02768 17.60099,-13.30036 25.80039,-19.85991 3.26354,-2.61105 5.61389,-0.67727 7.86456,0.99544 158.99648,134.75234 400.97687,260.89137 549.84125,331.90192 z"
   id="path5"
   sodipodi:nodetypes="scscsss"
   style="stroke-width:1.20996" />
<path
   fill="#fcb000"
   opacity="1"
   stroke="none"
   d="m 485.42301,589.77085 c -8.82812,6.60363 -16.66963,12.43324 -24.4658,18.32298 -2.33648,1.76514 -4.32222,1.85957 -6.74902,-0.0887 -13.28677,-10.6699 -26.64954,-21.24596 -40.04535,-31.77905 -6.8414,-5.37947 -13.7739,-10.64471 -20.723,-15.88508 -11.12074,-8.38607 -29.25546,-22.40779 -40.40395,-30.75715 l 60.45603,27.34262 c 24.51286,10.01268 48.8998,19.8016 71.93109,32.84485 z"
   id="path6"
   sodipodi:nodetypes="cssssccc"
   style="stroke-width:1.20996" />
</svg>
